<?xml version="1.0" encoding="UTF-8" standalone="no"?>
<svg
   xmlns:dc="http://purl.org/dc/elements/1.1/"
   xmlns:cc="http://creativecommons.org/ns#"
   xmlns:rdf="http://www.w3.org/1999/02/22-rdf-syntax-ns#"
   xmlns:svg="http://www.w3.org/2000/svg"
   xmlns="http://www.w3.org/2000/svg"
   xmlns:sodipodi="http://sodipodi.sourceforge.net/DTD/sodipodi-0.dtd"
   xmlns:inkscape="http://www.inkscape.org/namespaces/inkscape"
   version="1.1"
   style="font-family:Lato, 'Helvetica Neue', Helvetica, Arial, sans-serif;font-size:16px;background-color:white;text-rendering:optimizeLegibility;-webkit-font-smoothing:antialiased"
   width="850"
   height="600"
   viewBox="0 0 850 600"
   id="svg202"
   sodipodi:docname="anomalia-temperatura.svg"
   inkscape:version="1.0.1 (3bc2e813f5, 2020-09-07)"
   inkscape:export-filename="/home/agucova/repos/desafios-ingenieriles/1/anomalia-temperatura.png"
   inkscape:export-xdpi="96"
   inkscape:export-ydpi="96">
  <metadata
     id="metadata208">
    <rdf:RDF>
      <cc:Work
         rdf:about="">
        <dc:format>image/svg+xml</dc:format>
        <dc:type
           rdf:resource="http://purl.org/dc/dcmitype/StillImage" />
        <dc:title></dc:title>
      </cc:Work>
    </rdf:RDF>
  </metadata>
  <defs
     id="defs206" />
  <sodipodi:namedview
     pagecolor="#ffffff"
     bordercolor="#666666"
     borderopacity="1"
     objecttolerance="10"
     gridtolerance="10"
     guidetolerance="10"
     inkscape:pageopacity="0"
     inkscape:pageshadow="2"
     inkscape:window-width="1280"
     inkscape:window-height="1376"
     id="namedview204"
     showgrid="false"
     inkscape:zoom="1.4811765"
     inkscape:cx="137.04639"
     inkscape:cy="300"
     inkscape:window-x="1280"
     inkscape:window-y="27"
     inkscape:window-maximized="0"
     inkscape:current-layer="svg202" />
  <g
     class="HeaderView"
     id="g29">
    <g
       transform="translate(774, 15) scale(0.29)"
       id="g17">
      <svg
         className="owidLog"
         width="210"
         height="120"
         viewBox="0 0 210 120"
         fill="none"
         version="1.1"
         id="svg15">
        <g
           clip-path="url(#clip0)"
           id="g8">
          <path
             d="M0 0h210v107.89H0V0z"
             fill="#002147"
             id="path2" />
          <path
             d="M40.98 32.25c0 2.36-.38 4.53-1.12 6.51a14.26 14.26 0 0 1-8.1 8.4c-1.9.78-4.02 1.17-6.34 1.17-2.31 0-4.42-.39-6.33-1.17a14.31 14.31 0 0 1-8.08-8.4 18.29 18.29 0 0 1-1.12-6.51c0-2.36.38-4.53 1.12-6.5.75-1.97 1.8-3.67 3.17-5.1a14.32 14.32 0 0 1 4.9-3.34c1.92-.8 4.03-1.19 6.34-1.19 2.32 0 4.43.4 6.34 1.19 1.92.8 3.56 1.9 4.93 3.34a14.87 14.87 0 0 1 3.17 5.1 18.1 18.1 0 0 1 1.12 6.5zm-4.38 0c0-1.94-.26-3.68-.8-5.22a10.91 10.91 0 0 0-2.24-3.89 9.68 9.68 0 0 0-3.52-2.46 11.95 11.95 0 0 0-4.62-.86c-1.68 0-3.21.28-4.6.86a9.88 9.88 0 0 0-3.54 2.46 10.91 10.91 0 0 0-2.24 3.9c-.53 1.53-.8 3.27-.8 5.2 0 1.94.27 3.68.8 5.22a11.17 11.17 0 0 0 2.24 3.9 10.01 10.01 0 0 0 3.55 2.44c1.38.56 2.9.83 4.6.83s3.24-.27 4.61-.83a9.8 9.8 0 0 0 3.52-2.44 11.17 11.17 0 0 0 2.25-3.9c.53-1.54.8-3.28.8-5.21zm26.22-6.54V48H60.5c-.56 0-.9-.27-1.05-.81l-.31-2.4a12.45 12.45 0 0 1-3.26 2.6c-1.2.64-2.58.96-4.13.96-1.22 0-2.3-.2-3.24-.6a6.52 6.52 0 0 1-2.33-1.7 7.37 7.37 0 0 1-1.43-2.67c-.3-1.04-.46-2.2-.46-3.45V25.7h3.91v14.22c0 1.68.38 2.99 1.15 3.91.77.93 1.96 1.39 3.54 1.39 1.16 0 2.24-.27 3.23-.82a10.42 10.42 0 0 0 2.8-2.28V25.7h3.91zm8.61 4.47a9.94 9.94 0 0 1 2.6-3.56 5.64 5.64 0 0 1 3.76-1.3c.47 0 .92.05 1.34.15.44.1.83.27 1.17.49l-.3 2.92c-.09.37-.3.55-.66.55-.2 0-.5-.04-.9-.13a6.21 6.21 0 0 0-3.24.18 4.23 4.23 0 0 0-1.47.92c-.42.4-.81.9-1.17 1.5-.33.58-.64 1.26-.92 2.02V48H67.7V25.71h2.25c.42 0 .72.08.88.25.16.16.27.44.33.83l.26 3.39zm61.16-13.7L122.75 48h-3.82l-7.99-24.05a21.95 21.95 0 0 1-.42-1.58 38.36 38.36 0 0 1-.44 1.58L102.05 48h-3.83L88.4 16.47h3.54c.38 0 .7.1.95.29.26.2.43.43.5.73l6.52 21.9.28 1.28.29 1.46.3-1.46.38-1.27 7.41-21.91c.1-.25.26-.48.51-.69.27-.22.58-.33.95-.33h1.23c.38 0 .69.1.92.29a1.77 1.77 0 0 1 .53.73l7.4 21.9a28.4 28.4 0 0 1 .68 2.62 29.52 29.52 0 0 1 .52-2.61l6.54-21.91a1.31 1.31 0 0 1 .48-.7c.27-.21.58-.32.95-.32h3.32zm9.35 8.88c1.63 0 3.1.27 4.4.82a9.43 9.43 0 0 1 5.46 5.94c.5 1.4.74 2.98.74 4.73 0 1.76-.25 3.34-.74 4.75a9.43 9.43 0 0 1-5.46 5.92c-1.3.52-2.77.79-4.4.79-1.64 0-3.12-.27-4.44-.8a9.42 9.42 0 0 1-3.35-2.3c-.92-1-1.63-2.2-2.13-3.61-.49-1.41-.73-3-.73-4.75s.24-3.33.73-4.73c.5-1.43 1.2-2.64 2.13-3.63.93-1 2.04-1.77 3.35-2.31 1.32-.55 2.8-.82 4.44-.82zm0 19.89c2.2 0 3.84-.73 4.93-2.2 1.08-1.48 1.63-3.54 1.63-6.18 0-2.66-.55-4.72-1.63-6.2-1.09-1.49-2.73-2.23-4.93-2.23-1.12 0-2.09.2-2.93.57a5.71 5.71 0 0 0-2.06 1.65c-.55.72-.96 1.61-1.24 2.67-.26 1.04-.4 2.22-.4 3.54 0 2.64.55 4.7 1.64 6.18 1.1 1.47 2.76 2.2 4.99 2.2zm17.97-15.07a9.94 9.94 0 0 1 2.6-3.56 5.64 5.64 0 0 1 3.76-1.3c.47 0 .91.05 1.34.15.44.1.83.27 1.16.49l-.28 2.92c-.09.37-.31.55-.66.55-.2 0-.5-.04-.9-.13a6.2 6.2 0 0 0-3.24.18 4.23 4.23 0 0 0-1.47.92c-.43.4-.82.9-1.17 1.5a13.1 13.1 0 0 0-.92 2.02V48h-3.94V25.71h2.24c.43 0 .72.08.88.25.17.16.28.44.33.83l.27 3.39zm15.04-14.59V48h-3.92V15.6h3.92zm19.55 15.43a6.22 6.22 0 0 0-2.38-2.05 6.7 6.7 0 0 0-2.86-.6c-2.07 0-3.66.75-4.77 2.23-1.12 1.48-1.68 3.6-1.68 6.33 0 1.46.13 2.7.38 3.74a7.29 7.29 0 0 0 1.1 2.56 4.35 4.35 0 0 0 1.78 1.45c.7.3 1.5.46 2.4.46 1.29 0 2.41-.3 3.36-.88a9.6 9.6 0 0 0 2.67-2.49V31.02zm3.91-15.43V48h-2.33c-.56 0-.9-.27-1.06-.81l-.35-2.71a12.13 12.13 0 0 1-3.25 2.77 8.28 8.28 0 0 1-4.23 1.06 7.31 7.31 0 0 1-6.14-2.9c-.73-.96-1.3-2.15-1.69-3.57a18.35 18.35 0 0 1 .07-9.48 11.29 11.29 0 0 1 1.89-3.7 8.7 8.7 0 0 1 7.06-3.34 7.96 7.96 0 0 1 6.12 2.62V15.59h3.91zM46.61 70.71V93H42.7V70.71h3.91zm.84-7c0 .39-.08.75-.24 1.09-.15.32-.35.61-.62.88-.25.25-.55.44-.9.59a2.67 2.67 0 0 1-2.16 0 2.9 2.9 0 0 1-1.45-1.47 2.67 2.67 0 0 1 0-2.16c.15-.35.35-.65.6-.9.25-.27.53-.47.85-.62a2.67 2.67 0 0 1 2.16 0c.35.15.65.35.9.62.27.25.47.55.62.9.16.34.24.7.24 1.08zm7.97 10.24c.49-.54 1-1.04 1.54-1.48a9.85 9.85 0 0 1 3.66-1.84 8.96 8.96 0 0 1 5.43.35c.94.4 1.72.97 2.33 1.71.63.74 1.11 1.62 1.43 2.67.32 1.04.49 2.19.49 3.45V93h-3.94V78.81c0-1.69-.4-3-1.17-3.92-.76-.93-1.93-1.4-3.5-1.4-1.15 0-2.24.27-3.25.83-1 .56-1.92 1.31-2.77 2.27V93h-3.94V70.71h2.35c.56 0 .9.28 1.04.82l.3 2.42zm57.7 3.3c0 2.36-.37 4.5-1.11 6.44a14.3 14.3 0 0 1-3.17 4.98c-1.37 1.37-3 2.45-4.93 3.2-1.9.76-4.02 1.13-6.33 1.13H85.8V61.47h11.77c2.31 0 4.42.39 6.33 1.15a13.8 13.8 0 0 1 8.1 8.18 17.75 17.75 0 0 1 1.12 6.45zm-4.37 0c0-1.94-.26-3.67-.8-5.2a10.94 10.94 0 0 0-2.23-3.87 9.57 9.57 0 0 0-3.53-2.42 12.23 12.23 0 0 0-4.61-.83h-7.5v24.62h7.5c1.7 0 3.24-.28 4.61-.84a9.7 9.7 0 0 0 3.53-2.4 10.94 10.94 0 0 0 2.24-3.87c.53-1.53.8-3.26.8-5.2zm19.8 5.72c-1.8.06-3.34.2-4.62.44-1.26.22-2.3.51-3.1.88-.8.36-1.37.8-1.74 1.3-.35.5-.53 1.05-.53 1.67 0 .58.1 1.1.3 1.52a3 3 0 0 0 .76 1.05c.34.27.73.46 1.17.6a6.13 6.13 0 0 0 1.45.17 7.28 7.28 0 0 0 3.5-.81 11.95 11.95 0 0 0 2.82-2.2v-4.62zm-12.65-9.11a12.73 12.73 0 0 1 3.98-2.66c1.43-.59 3-.88 4.73-.88 1.25 0 2.36.2 3.33.61a6.81 6.81 0 0 1 3.94 4.38c.33 1.04.5 2.19.5 3.43V93h-1.74a1.8 1.8 0 0 1-.88-.18c-.2-.13-.36-.38-.48-.74l-.44-2.12-1.72 1.46a9.48 9.48 0 0 1-3.74 1.7c-.69.15-1.46.23-2.3.23-.87 0-1.69-.12-2.45-.35a5.34 5.34 0 0 1-3.34-2.93 6.64 6.64 0 0 1-.49-2.64c0-.88.25-1.72.73-2.53a6.33 6.33 0 0 1 2.35-2.17c1.09-.63 2.5-1.15 4.25-1.54 1.75-.41 3.89-.65 6.42-.7v-1.75c0-1.73-.37-3.03-1.12-3.91-.75-.9-1.84-1.34-3.28-1.34-.97 0-1.78.12-2.44.37-.64.23-1.2.5-1.7.81l-1.23.82c-.33.23-.67.35-1 .35-.27 0-.5-.07-.69-.2a2.1 2.1 0 0 1-.48-.53l-.7-1.25zm27.67 19.5c-1.76 0-3.12-.5-4.07-1.48-.94-.98-1.41-2.4-1.41-4.25V74h-2.68a.9.9 0 0 1-.6-.2c-.16-.14-.24-.36-.24-.66v-1.56l3.65-.46.9-6.89c.05-.22.14-.4.29-.52a.88.88 0 0 1 .62-.22H142v7.67h6.44V74H142v13.38c0 .94.22 1.63.68 2.09.45.45 1.04.68 1.76.68a3.21 3.21 0 0 0 1.85-.53l.55-.35c.16-.12.3-.18.41-.18.2 0 .4.13.55.38l1.15 1.87a7.45 7.45 0 0 1-2.44 1.5 8.53 8.53 0 0 1-2.95.52zm19.68-10.4c-1.8.07-3.34.21-4.62.45-1.26.22-2.3.51-3.1.88-.8.36-1.37.8-1.74 1.3-.35.5-.53 1.05-.53 1.67 0 .58.1 1.1.3 1.52a2.9 2.9 0 0 0 .76 1.05c.34.27.73.46 1.17.6a6.13 6.13 0 0 0 1.45.17 7.3 7.3 0 0 0 3.5-.81 12.04 12.04 0 0 0 2.82-2.2v-4.62zm-12.65-9.1a12.72 12.72 0 0 1 3.99-2.66c1.42-.59 3-.88 4.72-.88 1.25 0 2.36.2 3.33.61a6.81 6.81 0 0 1 3.94 4.38c.33 1.04.5 2.19.5 3.43V93h-1.74a1.8 1.8 0 0 1-.88-.18c-.2-.13-.36-.38-.48-.74l-.44-2.12-1.72 1.46a9.48 9.48 0 0 1-3.74 1.7c-.69.15-1.46.23-2.3.23-.87 0-1.69-.12-2.45-.35a5.33 5.33 0 0 1-3.34-2.93 6.62 6.62 0 0 1-.49-2.64c0-.88.25-1.72.73-2.53a6.33 6.33 0 0 1 2.35-2.17c1.09-.63 2.5-1.15 4.25-1.54 1.74-.41 3.89-.65 6.42-.7v-1.75c0-1.73-.37-3.03-1.12-3.91-.75-.9-1.84-1.34-3.28-1.34-.97 0-1.78.12-2.44.37-.64.23-1.2.5-1.7.81l-1.22.82c-.34.23-.68.35-1.02.35-.26 0-.49-.07-.68-.2a1.88 1.88 0 0 1-.48-.53l-.7-1.25zM40.98 32.25c0 2.36-.38 4.53-1.12 6.51a14.26 14.26 0 0 1-8.1 8.4c-1.9.78-4.02 1.17-6.34 1.17-2.31 0-4.42-.39-6.33-1.17a14.31 14.31 0 0 1-8.08-8.4 18.29 18.29 0 0 1-1.12-6.51c0-2.36.38-4.53 1.12-6.5.75-1.97 1.8-3.67 3.17-5.1a14.32 14.32 0 0 1 4.9-3.34c1.92-.8 4.03-1.19 6.34-1.19 2.32 0 4.43.4 6.34 1.19 1.92.8 3.56 1.9 4.93 3.34a14.87 14.87 0 0 1 3.17 5.1 18.1 18.1 0 0 1 1.12 6.5zm-4.38 0c0-1.94-.26-3.68-.8-5.22a10.91 10.91 0 0 0-2.24-3.89 9.68 9.68 0 0 0-3.52-2.46 11.95 11.95 0 0 0-4.62-.86c-1.68 0-3.21.28-4.6.86a9.88 9.88 0 0 0-3.54 2.46 10.91 10.91 0 0 0-2.24 3.9c-.53 1.53-.8 3.27-.8 5.2 0 1.94.27 3.68.8 5.22a11.17 11.17 0 0 0 2.24 3.9 10.01 10.01 0 0 0 3.55 2.44c1.38.56 2.9.83 4.6.83s3.24-.27 4.61-.83a9.8 9.8 0 0 0 3.52-2.44 11.17 11.17 0 0 0 2.25-3.9c.53-1.54.8-3.28.8-5.21zm26.22-6.54V48H60.5c-.56 0-.9-.27-1.05-.81l-.31-2.4a12.45 12.45 0 0 1-3.26 2.6c-1.2.64-2.58.96-4.13.96-1.22 0-2.3-.2-3.24-.6a6.52 6.52 0 0 1-2.33-1.7 7.37 7.37 0 0 1-1.43-2.67c-.3-1.04-.46-2.2-.46-3.45V25.7h3.91v14.22c0 1.68.38 2.99 1.15 3.91.77.93 1.96 1.39 3.54 1.39 1.16 0 2.24-.27 3.23-.82a10.42 10.42 0 0 0 2.8-2.28V25.7h3.91zm8.61 4.47a9.94 9.94 0 0 1 2.6-3.56 5.64 5.64 0 0 1 3.76-1.3c.47 0 .92.05 1.34.15.44.1.83.27 1.17.49l-.3 2.92c-.09.37-.3.55-.66.55-.2 0-.5-.04-.9-.13a6.21 6.21 0 0 0-3.24.18 4.23 4.23 0 0 0-1.47.92c-.42.4-.81.9-1.17 1.5-.33.58-.64 1.26-.92 2.02V48H67.7V25.71h2.25c.42 0 .72.08.88.25.16.16.27.44.33.83l.26 3.39zm61.16-13.7L122.75 48h-3.82l-7.99-24.05a21.95 21.95 0 0 1-.42-1.58 38.36 38.36 0 0 1-.44 1.58L102.05 48h-3.83L88.4 16.47h3.54c.38 0 .7.1.95.29.26.2.43.43.5.73l6.52 21.9.28 1.28.29 1.46.3-1.46.38-1.27 7.41-21.91c.1-.25.26-.48.51-.69.27-.22.58-.33.95-.33h1.23c.38 0 .69.1.92.29a1.77 1.77 0 0 1 .53.73l7.4 21.9a28.4 28.4 0 0 1 .68 2.62 29.52 29.52 0 0 1 .52-2.61l6.54-21.91a1.31 1.31 0 0 1 .48-.7c.27-.21.58-.32.95-.32h3.32zm9.35 8.88c1.63 0 3.1.27 4.4.82a9.43 9.43 0 0 1 5.46 5.94c.5 1.4.74 2.98.74 4.73 0 1.76-.25 3.34-.74 4.75a9.43 9.43 0 0 1-5.46 5.92c-1.3.52-2.77.79-4.4.79-1.64 0-3.12-.27-4.44-.8a9.42 9.42 0 0 1-3.35-2.3c-.92-1-1.63-2.2-2.13-3.61-.49-1.41-.73-3-.73-4.75s.24-3.33.73-4.73c.5-1.43 1.2-2.64 2.13-3.63.93-1 2.04-1.77 3.35-2.31 1.32-.55 2.8-.82 4.44-.82zm0 19.89c2.2 0 3.84-.73 4.93-2.2 1.08-1.48 1.63-3.54 1.63-6.18 0-2.66-.55-4.72-1.63-6.2-1.09-1.49-2.73-2.23-4.93-2.23-1.12 0-2.09.2-2.93.57a5.71 5.71 0 0 0-2.06 1.65c-.55.72-.96 1.61-1.24 2.67-.26 1.04-.4 2.22-.4 3.54 0 2.64.55 4.7 1.64 6.18 1.1 1.47 2.76 2.2 4.99 2.2zm17.97-15.07a9.94 9.94 0 0 1 2.6-3.56 5.64 5.64 0 0 1 3.76-1.3c.47 0 .91.05 1.34.15.44.1.83.27 1.16.49l-.28 2.92c-.09.37-.31.55-.66.55-.2 0-.5-.04-.9-.13a6.2 6.2 0 0 0-3.24.18 4.23 4.23 0 0 0-1.47.92c-.43.4-.82.9-1.17 1.5a13.1 13.1 0 0 0-.92 2.02V48h-3.94V25.71h2.24c.43 0 .72.08.88.25.17.16.28.44.33.83l.27 3.39zm15.04-14.59V48h-3.92V15.6h3.92zm19.55 15.43a6.22 6.22 0 0 0-2.38-2.05 6.7 6.7 0 0 0-2.86-.6c-2.07 0-3.66.75-4.77 2.23-1.12 1.48-1.68 3.6-1.68 6.33 0 1.46.13 2.7.38 3.74a7.29 7.29 0 0 0 1.1 2.56 4.35 4.35 0 0 0 1.78 1.45c.7.3 1.5.46 2.4.46 1.29 0 2.41-.3 3.36-.88a9.6 9.6 0 0 0 2.67-2.49V31.02zm3.91-15.43V48h-2.33c-.56 0-.9-.27-1.06-.81l-.35-2.71a12.13 12.13 0 0 1-3.25 2.77 8.28 8.28 0 0 1-4.23 1.06 7.31 7.31 0 0 1-6.14-2.9c-.73-.96-1.3-2.15-1.69-3.57a18.35 18.35 0 0 1 .07-9.48 11.29 11.29 0 0 1 1.89-3.7 8.7 8.7 0 0 1 7.06-3.34 7.96 7.96 0 0 1 6.12 2.62V15.59h3.91zM46.61 70.71V93H42.7V70.71h3.91zm.84-7c0 .39-.08.75-.24 1.09-.15.32-.35.61-.62.88-.25.25-.55.44-.9.59a2.67 2.67 0 0 1-2.16 0 2.9 2.9 0 0 1-1.45-1.47 2.67 2.67 0 0 1 0-2.16c.15-.35.35-.65.6-.9.25-.27.53-.47.85-.62a2.67 2.67 0 0 1 2.16 0c.35.15.65.35.9.62.27.25.47.55.62.9.16.34.24.7.24 1.08zm7.97 10.24c.49-.54 1-1.04 1.54-1.48a9.85 9.85 0 0 1 3.66-1.84 8.96 8.96 0 0 1 5.43.35c.94.4 1.72.97 2.33 1.71.63.74 1.11 1.62 1.43 2.67.32 1.04.49 2.19.49 3.45V93h-3.94V78.81c0-1.69-.4-3-1.17-3.92-.76-.93-1.93-1.4-3.5-1.4-1.15 0-2.24.27-3.25.83-1 .56-1.92 1.31-2.77 2.27V93h-3.94V70.71h2.35c.56 0 .9.28 1.04.82l.3 2.42zm57.7 3.3c0 2.36-.37 4.5-1.11 6.44a14.3 14.3 0 0 1-3.17 4.98c-1.37 1.37-3 2.45-4.93 3.2-1.9.76-4.02 1.13-6.33 1.13H85.8V61.47h11.77c2.31 0 4.42.39 6.33 1.15a13.8 13.8 0 0 1 8.1 8.18 17.75 17.75 0 0 1 1.12 6.45zm-4.37 0c0-1.94-.26-3.67-.8-5.2a10.94 10.94 0 0 0-2.23-3.87 9.57 9.57 0 0 0-3.53-2.42 12.23 12.23 0 0 0-4.61-.83h-7.5v24.62h7.5c1.7 0 3.24-.28 4.61-.84a9.7 9.7 0 0 0 3.53-2.4 10.94 10.94 0 0 0 2.24-3.87c.53-1.53.8-3.26.8-5.2zm19.8 5.72c-1.8.06-3.34.2-4.62.44-1.26.22-2.3.51-3.1.88-.8.36-1.37.8-1.74 1.3-.35.5-.53 1.05-.53 1.67 0 .58.1 1.1.3 1.52a3 3 0 0 0 .76 1.05c.34.27.73.46 1.17.6a6.13 6.13 0 0 0 1.45.17 7.28 7.28 0 0 0 3.5-.81 11.95 11.95 0 0 0 2.82-2.2v-4.62zm-12.65-9.11a12.73 12.73 0 0 1 3.98-2.66c1.43-.59 3-.88 4.73-.88 1.25 0 2.36.2 3.33.61a6.81 6.81 0 0 1 3.94 4.38c.33 1.04.5 2.19.5 3.43V93h-1.74a1.8 1.8 0 0 1-.88-.18c-.2-.13-.36-.38-.48-.74l-.44-2.12-1.72 1.46a9.48 9.48 0 0 1-3.74 1.7c-.69.15-1.46.23-2.3.23-.87 0-1.69-.12-2.45-.35a5.34 5.34 0 0 1-3.34-2.93 6.64 6.64 0 0 1-.49-2.64c0-.88.25-1.72.73-2.53a6.33 6.33 0 0 1 2.35-2.17c1.09-.63 2.5-1.15 4.25-1.54 1.75-.41 3.89-.65 6.42-.7v-1.75c0-1.73-.37-3.03-1.12-3.91-.75-.9-1.84-1.34-3.28-1.34-.97 0-1.78.12-2.44.37-.64.23-1.2.5-1.7.81l-1.23.82c-.33.23-.67.35-1 .35-.27 0-.5-.07-.69-.2a2.1 2.1 0 0 1-.48-.53l-.7-1.25zm27.67 19.5c-1.76 0-3.12-.5-4.07-1.48-.94-.98-1.41-2.4-1.41-4.25V74h-2.68a.9.9 0 0 1-.6-.2c-.16-.14-.24-.36-.24-.66v-1.56l3.65-.46.9-6.89c.05-.22.14-.4.29-.52a.88.88 0 0 1 .62-.22H142v7.67h6.44V74H142v13.38c0 .94.22 1.63.68 2.09.45.45 1.04.68 1.76.68a3.21 3.21 0 0 0 1.85-.53l.55-.35c.16-.12.3-.18.41-.18.2 0 .4.13.55.38l1.15 1.87a7.45 7.45 0 0 1-2.44 1.5 8.53 8.53 0 0 1-2.95.52zm19.68-10.4c-1.8.07-3.34.21-4.62.45-1.26.22-2.3.51-3.1.88-.8.36-1.37.8-1.74 1.3-.35.5-.53 1.05-.53 1.67 0 .58.1 1.1.3 1.52a2.9 2.9 0 0 0 .76 1.05c.34.27.73.46 1.17.6a6.13 6.13 0 0 0 1.45.17 7.3 7.3 0 0 0 3.5-.81 12.04 12.04 0 0 0 2.82-2.2v-4.62zm-12.65-9.1a12.72 12.72 0 0 1 3.99-2.66c1.42-.59 3-.88 4.72-.88 1.25 0 2.36.2 3.33.61a6.81 6.81 0 0 1 3.94 4.38c.33 1.04.5 2.19.5 3.43V93h-1.74a1.8 1.8 0 0 1-.88-.18c-.2-.13-.36-.38-.48-.74l-.44-2.12-1.72 1.46a9.48 9.48 0 0 1-3.74 1.7c-.69.15-1.46.23-2.3.23-.87 0-1.69-.12-2.45-.35a5.33 5.33 0 0 1-3.34-2.93 6.62 6.62 0 0 1-.49-2.64c0-.88.25-1.72.73-2.53a6.33 6.33 0 0 1 2.35-2.17c1.09-.63 2.5-1.15 4.25-1.54 1.74-.41 3.89-.65 6.42-.7v-1.75c0-1.73-.37-3.03-1.12-3.91-.75-.9-1.84-1.34-3.28-1.34-.97 0-1.78.12-2.44.37-.64.23-1.2.5-1.7.81l-1.22.82c-.34.23-.68.35-1.02.35-.26 0-.49-.07-.68-.2a1.88 1.88 0 0 1-.48-.53l-.7-1.25zM40.98 32.25c0 2.36-.38 4.53-1.12 6.51a14.26 14.26 0 0 1-8.1 8.4c-1.9.78-4.02 1.17-6.34 1.17-2.31 0-4.42-.39-6.33-1.17a14.31 14.31 0 0 1-8.08-8.4 18.29 18.29 0 0 1-1.12-6.51c0-2.36.38-4.53 1.12-6.5.75-1.97 1.8-3.67 3.17-5.1a14.32 14.32 0 0 1 4.9-3.34c1.92-.8 4.03-1.19 6.34-1.19 2.32 0 4.43.4 6.34 1.19 1.92.8 3.56 1.9 4.93 3.34a14.87 14.87 0 0 1 3.17 5.1 18.1 18.1 0 0 1 1.12 6.5zm-4.38 0c0-1.94-.26-3.68-.8-5.22a10.91 10.91 0 0 0-2.24-3.89 9.68 9.68 0 0 0-3.52-2.46 11.95 11.95 0 0 0-4.62-.86c-1.68 0-3.21.28-4.6.86a9.88 9.88 0 0 0-3.54 2.46 10.91 10.91 0 0 0-2.24 3.9c-.53 1.53-.8 3.27-.8 5.2 0 1.94.27 3.68.8 5.22a11.17 11.17 0 0 0 2.24 3.9 10.01 10.01 0 0 0 3.55 2.44c1.38.56 2.9.83 4.6.83s3.24-.27 4.61-.83a9.8 9.8 0 0 0 3.52-2.44 11.17 11.17 0 0 0 2.25-3.9c.53-1.54.8-3.28.8-5.21zm26.22-6.54V48H60.5c-.56 0-.9-.27-1.05-.81l-.31-2.4a12.45 12.45 0 0 1-3.26 2.6c-1.2.64-2.58.96-4.13.96-1.22 0-2.3-.2-3.24-.6a6.52 6.52 0 0 1-2.33-1.7 7.37 7.37 0 0 1-1.43-2.67c-.3-1.04-.46-2.2-.46-3.45V25.7h3.91v14.22c0 1.68.38 2.99 1.15 3.91.77.93 1.96 1.39 3.54 1.39 1.16 0 2.24-.27 3.23-.82a10.42 10.42 0 0 0 2.8-2.28V25.7h3.91zm8.61 4.47a9.94 9.94 0 0 1 2.6-3.56 5.64 5.64 0 0 1 3.76-1.3c.47 0 .92.05 1.34.15.44.1.83.27 1.17.49l-.3 2.92c-.09.37-.3.55-.66.55-.2 0-.5-.04-.9-.13a6.21 6.21 0 0 0-3.24.18 4.23 4.23 0 0 0-1.47.92c-.42.4-.81.9-1.17 1.5-.33.58-.64 1.26-.92 2.02V48H67.7V25.71h2.25c.42 0 .72.08.88.25.16.16.27.44.33.83l.26 3.39zm61.16-13.7L122.75 48h-3.82l-7.99-24.05a21.95 21.95 0 0 1-.42-1.58 38.36 38.36 0 0 1-.44 1.58L102.05 48h-3.83L88.4 16.47h3.54c.38 0 .7.1.95.29.26.2.43.43.5.73l6.52 21.9.28 1.28.29 1.46.3-1.46.38-1.27 7.41-21.91c.1-.25.26-.48.51-.69.27-.22.58-.33.95-.33h1.23c.38 0 .69.1.92.29a1.77 1.77 0 0 1 .53.73l7.4 21.9a28.4 28.4 0 0 1 .68 2.62 29.52 29.52 0 0 1 .52-2.61l6.54-21.91a1.31 1.31 0 0 1 .48-.7c.27-.21.58-.32.95-.32h3.32zm9.35 8.88c1.63 0 3.1.27 4.4.82a9.43 9.43 0 0 1 5.46 5.94c.5 1.4.74 2.98.74 4.73 0 1.76-.25 3.34-.74 4.75a9.43 9.43 0 0 1-5.46 5.92c-1.3.52-2.77.79-4.4.79-1.64 0-3.12-.27-4.44-.8a9.42 9.42 0 0 1-3.35-2.3c-.92-1-1.63-2.2-2.13-3.61-.49-1.41-.73-3-.73-4.75s.24-3.33.73-4.73c.5-1.43 1.2-2.64 2.13-3.63.93-1 2.04-1.77 3.35-2.31 1.32-.55 2.8-.82 4.44-.82zm0 19.89c2.2 0 3.84-.73 4.93-2.2 1.08-1.48 1.63-3.54 1.63-6.18 0-2.66-.55-4.72-1.63-6.2-1.09-1.49-2.73-2.23-4.93-2.23-1.12 0-2.09.2-2.93.57a5.71 5.71 0 0 0-2.06 1.65c-.55.72-.96 1.61-1.24 2.67-.26 1.04-.4 2.22-.4 3.54 0 2.64.55 4.7 1.64 6.18 1.1 1.47 2.76 2.2 4.99 2.2zm17.97-15.07a9.94 9.94 0 0 1 2.6-3.56 5.64 5.64 0 0 1 3.76-1.3c.47 0 .91.05 1.34.15.44.1.83.27 1.16.49l-.28 2.92c-.09.37-.31.55-.66.55-.2 0-.5-.04-.9-.13a6.2 6.2 0 0 0-3.24.18 4.23 4.23 0 0 0-1.47.92c-.43.4-.82.9-1.17 1.5a13.1 13.1 0 0 0-.92 2.02V48h-3.94V25.71h2.24c.43 0 .72.08.88.25.17.16.28.44.33.83l.27 3.39zm15.04-14.59V48h-3.92V15.6h3.92zm19.55 15.43a6.22 6.22 0 0 0-2.38-2.05 6.7 6.7 0 0 0-2.86-.6c-2.07 0-3.66.75-4.77 2.23-1.12 1.48-1.68 3.6-1.68 6.33 0 1.46.13 2.7.38 3.74a7.29 7.29 0 0 0 1.1 2.56 4.35 4.35 0 0 0 1.78 1.45c.7.3 1.5.46 2.4.46 1.29 0 2.41-.3 3.36-.88a9.6 9.6 0 0 0 2.67-2.49V31.02zm3.91-15.43V48h-2.33c-.56 0-.9-.27-1.06-.81l-.35-2.71a12.13 12.13 0 0 1-3.25 2.77 8.28 8.28 0 0 1-4.23 1.06 7.31 7.31 0 0 1-6.14-2.9c-.73-.96-1.3-2.15-1.69-3.57a18.35 18.35 0 0 1 .07-9.48 11.29 11.29 0 0 1 1.89-3.7 8.7 8.7 0 0 1 7.06-3.34 7.96 7.96 0 0 1 6.12 2.62V15.59h3.91zM46.61 70.71V93H42.7V70.71h3.91zm.84-7c0 .39-.08.75-.24 1.09-.15.32-.35.61-.62.88-.25.25-.55.44-.9.59a2.67 2.67 0 0 1-2.16 0 2.9 2.9 0 0 1-1.45-1.47 2.67 2.67 0 0 1 0-2.16c.15-.35.35-.65.6-.9.25-.27.53-.47.85-.62a2.67 2.67 0 0 1 2.16 0c.35.15.65.35.9.62.27.25.47.55.62.9.16.34.24.7.24 1.08zm7.97 10.24c.49-.54 1-1.04 1.54-1.48a9.85 9.85 0 0 1 3.66-1.84 8.96 8.96 0 0 1 5.43.35c.94.4 1.72.97 2.33 1.71.63.74 1.11 1.62 1.43 2.67.32 1.04.49 2.19.49 3.45V93h-3.94V78.81c0-1.69-.4-3-1.17-3.92-.76-.93-1.93-1.4-3.5-1.4-1.15 0-2.24.27-3.25.83-1 .56-1.92 1.31-2.77 2.27V93h-3.94V70.71h2.35c.56 0 .9.28 1.04.82l.3 2.42zm57.7 3.3c0 2.36-.37 4.5-1.11 6.44a14.3 14.3 0 0 1-3.17 4.98c-1.37 1.37-3 2.45-4.93 3.2-1.9.76-4.02 1.13-6.33 1.13H85.8V61.47h11.77c2.31 0 4.42.39 6.33 1.15a13.8 13.8 0 0 1 8.1 8.18 17.75 17.75 0 0 1 1.12 6.45zm-4.37 0c0-1.94-.26-3.67-.8-5.2a10.94 10.94 0 0 0-2.23-3.87 9.57 9.57 0 0 0-3.53-2.42 12.23 12.23 0 0 0-4.61-.83h-7.5v24.62h7.5c1.7 0 3.24-.28 4.61-.84a9.7 9.7 0 0 0 3.53-2.4 10.94 10.94 0 0 0 2.24-3.87c.53-1.53.8-3.26.8-5.2zm19.8 5.72c-1.8.06-3.34.2-4.62.44-1.26.22-2.3.51-3.1.88-.8.36-1.37.8-1.74 1.3-.35.5-.53 1.05-.53 1.67 0 .58.1 1.1.3 1.52a3 3 0 0 0 .76 1.05c.34.27.73.46 1.17.6a6.13 6.13 0 0 0 1.45.17 7.28 7.28 0 0 0 3.5-.81 11.95 11.95 0 0 0 2.82-2.2v-4.62zm-12.65-9.11a12.73 12.73 0 0 1 3.98-2.66c1.43-.59 3-.88 4.73-.88 1.25 0 2.36.2 3.33.61a6.81 6.81 0 0 1 3.94 4.38c.33 1.04.5 2.19.5 3.43V93h-1.74a1.8 1.8 0 0 1-.88-.18c-.2-.13-.36-.38-.48-.74l-.44-2.12-1.72 1.46a9.48 9.48 0 0 1-3.74 1.7c-.69.15-1.46.23-2.3.23-.87 0-1.69-.12-2.45-.35a5.34 5.34 0 0 1-3.34-2.93 6.64 6.64 0 0 1-.49-2.64c0-.88.25-1.72.73-2.53a6.33 6.33 0 0 1 2.35-2.17c1.09-.63 2.5-1.15 4.25-1.54 1.75-.41 3.89-.65 6.42-.7v-1.75c0-1.73-.37-3.03-1.12-3.91-.75-.9-1.84-1.34-3.28-1.34-.97 0-1.78.12-2.44.37-.64.23-1.2.5-1.7.81l-1.23.82c-.33.23-.67.35-1 .35-.27 0-.5-.07-.69-.2a2.1 2.1 0 0 1-.48-.53l-.7-1.25zm27.67 19.5c-1.76 0-3.12-.5-4.07-1.48-.94-.98-1.41-2.4-1.41-4.25V74h-2.68a.9.9 0 0 1-.6-.2c-.16-.14-.24-.36-.24-.66v-1.56l3.65-.46.9-6.89c.05-.22.14-.4.29-.52a.88.88 0 0 1 .62-.22H142v7.67h6.44V74H142v13.38c0 .94.22 1.63.68 2.09.45.45 1.04.68 1.76.68a3.21 3.21 0 0 0 1.85-.53l.55-.35c.16-.12.3-.18.41-.18.2 0 .4.13.55.38l1.15 1.87a7.45 7.45 0 0 1-2.44 1.5 8.53 8.53 0 0 1-2.95.52zm19.68-10.4c-1.8.07-3.34.21-4.62.45-1.26.22-2.3.51-3.1.88-.8.36-1.37.8-1.74 1.3-.35.5-.53 1.05-.53 1.67 0 .58.1 1.1.3 1.52a2.9 2.9 0 0 0 .76 1.05c.34.27.73.46 1.17.6a6.13 6.13 0 0 0 1.45.17 7.3 7.3 0 0 0 3.5-.81 12.04 12.04 0 0 0 2.82-2.2v-4.62zm-12.65-9.1a12.72 12.72 0 0 1 3.99-2.66c1.42-.59 3-.88 4.72-.88 1.25 0 2.36.2 3.33.61a6.81 6.81 0 0 1 3.94 4.38c.33 1.04.5 2.19.5 3.43V93h-1.74a1.8 1.8 0 0 1-.88-.18c-.2-.13-.36-.38-.48-.74l-.44-2.12-1.72 1.46a9.48 9.48 0 0 1-3.74 1.7c-.69.15-1.46.23-2.3.23-.87 0-1.69-.12-2.45-.35a5.33 5.33 0 0 1-3.34-2.93 6.62 6.62 0 0 1-.49-2.64c0-.88.25-1.72.73-2.53a6.33 6.33 0 0 1 2.35-2.17c1.09-.63 2.5-1.15 4.25-1.54 1.74-.41 3.89-.65 6.42-.7v-1.75c0-1.73-.37-3.03-1.12-3.91-.75-.9-1.84-1.34-3.28-1.34-.97 0-1.78.12-2.44.37-.64.23-1.2.5-1.7.81l-1.22.82c-.34.23-.68.35-1.02.35-.26 0-.49-.07-.68-.2a1.88 1.88 0 0 1-.48-.53l-.7-1.25z"
             fill="#fff"
             id="path4" />
          <path
             fill="#D42B21"
             d="M0 106.79h210V120H0z"
             id="path6" />
        </g>
        <defs
           id="defs13">
          <clipPath
             id="clip0">
            <path
               fill="#fff"
               d="M0 0h210v120H0z"
               id="path10" />
          </clipPath>
        </defs>
      </svg>
    </g>
    <a
       href="https://ourworldindata.org/grapher/temperature-anomaly?country=~Global"
       style="font-family:&quot;Playfair Display&quot;, Georgia, &quot;Times New Roman&quot;, serif"
       target="_blank"
       rel="noopener"
       id="a23">
      <text
         font-size="22.4px"
         x="15"
         y="32.900002"
         fill="#555555"
         id="text21"><tspan
           x="15"
           y="32.919998"
           id="tspan19">Anomalía global de temperatura</tspan></text>
    </a>
    <text
       font-size="12.8px"
       x="15"
       y="51.599998"
       fill="#666666"
       id="text27"><tspan
         x="15"
         y="51.639999"
         id="tspan25">Promedio global de anomalías en temperaturas en mar y tierra relativo a la temperatura promedio de 1961-1990</tspan></text>
  </g>
  <g
     class="LineChart"
     id="g180">
    <defs
       id="defs34">
      <clipPath
         id="boundsClip-4">
        <rect
           x="46.144000000000005"
           y="54.2"
           width="830"
           height="926.8"
           id="rect31" />
      </clipPath>
    </defs>
    <g
       class="DualAxisView"
       id="g110">
      <g
         class="HorizontalAxis"
         id="g76">
        <line
           x1="56.1"
           y1="516.2"
           x2="56.1"
           y2="520.2"
           stroke="#ccc"
           id="line36" />
        <line
           x1="97.8"
           y1="516.2"
           x2="97.8"
           y2="520.2"
           stroke="#ccc"
           id="line38" />
        <line
           x1="181.2"
           y1="516.2"
           x2="181.2"
           y2="520.2"
           stroke="#ccc"
           id="line40" />
        <line
           x1="264.5"
           y1="516.2"
           x2="264.5"
           y2="520.2"
           stroke="#ccc"
           id="line42" />
        <line
           x1="347.9"
           y1="516.2"
           x2="347.9"
           y2="520.2"
           stroke="#ccc"
           id="line44" />
        <line
           x1="431.3"
           y1="516.2"
           x2="431.3"
           y2="520.2"
           stroke="#ccc"
           id="line46" />
        <line
           x1="514.6"
           y1="516.2"
           x2="514.6"
           y2="520.2"
           stroke="#ccc"
           id="line48" />
        <line
           x1="598"
           y1="516.2"
           x2="598"
           y2="520.2"
           stroke="#ccc"
           id="line50" />
        <line
           x1="681.3"
           y1="516.2"
           x2="681.3"
           y2="520.2"
           stroke="#ccc"
           id="line52" />
        <line
           x1="760.5"
           y1="516.2"
           x2="760.5"
           y2="520.2"
           stroke="#ccc"
           id="line54" />
        <text
           x="56.1"
           y="535.6"
           fill="#666"
           text-anchor="middle"
           font-size="14.4"
           id="text56">1850</text>
        <text
           x="97.8"
           y="535.6"
           fill="#666"
           text-anchor="middle"
           font-size="14.4"
           id="text58">1860</text>
        <text
           x="181.2"
           y="535.6"
           fill="#666"
           text-anchor="middle"
           font-size="14.4"
           id="text60">1880</text>
        <text
           x="264.5"
           y="535.6"
           fill="#666"
           text-anchor="middle"
           font-size="14.4"
           id="text62">1900</text>
        <text
           x="347.9"
           y="535.6"
           fill="#666"
           text-anchor="middle"
           font-size="14.4"
           id="text64">1920</text>
        <text
           x="431.3"
           y="535.6"
           fill="#666"
           text-anchor="middle"
           font-size="14.4"
           id="text66">1940</text>
        <text
           x="514.6"
           y="535.6"
           fill="#666"
           text-anchor="middle"
           font-size="14.4"
           id="text68">1960</text>
        <text
           x="598"
           y="535.6"
           fill="#666"
           text-anchor="middle"
           font-size="14.4"
           id="text70">1980</text>
        <text
           x="681.3"
           y="535.6"
           fill="#666"
           text-anchor="middle"
           font-size="14.4"
           id="text72">2000</text>
        <text
           x="760.5"
           y="535.6"
           fill="#666"
           text-anchor="middle"
           font-size="14.4"
           id="text74">2019</text>
      </g>
      <g
         class="VerticalAxis"
         id="g92">
        <text
           x="51.14"
           y="455.1"
           fill="#666"
           dominant-baseline="middle"
           text-anchor="end"
           font-size="14.4"
           id="text78">-0.4 ℃</text>
        <text
           x="51.14"
           y="393.1"
           fill="#666"
           dominant-baseline="middle"
           text-anchor="end"
           font-size="14.4"
           id="text80">-0.2 ℃</text>
        <text
           x="51.14"
           y="331.1"
           fill="#666"
           dominant-baseline="middle"
           text-anchor="end"
           font-size="14.4"
           id="text82">0 ℃</text>
        <text
           x="51.14"
           y="269.1"
           fill="#666"
           dominant-baseline="middle"
           text-anchor="end"
           font-size="14.4"
           id="text84">0.2 ℃</text>
        <text
           x="51.14"
           y="207.1"
           fill="#666"
           dominant-baseline="middle"
           text-anchor="end"
           font-size="14.4"
           id="text86">0.4 ℃</text>
        <text
           x="51.14"
           y="145.1"
           fill="#666"
           dominant-baseline="middle"
           text-anchor="end"
           font-size="14.4"
           id="text88">0.6 ℃</text>
        <text
           x="51.14"
           y="83.1"
           fill="#666"
           dominant-baseline="middle"
           text-anchor="end"
           font-size="14.4"
           id="text90">0.8 ℃</text>
      </g>
      <g
         class="AxisGridLines horizontalLines"
         id="g108">
        <line
           x1="56.14"
           y1="455.1"
           x2="760.52"
           y2="455.1"
           stroke="#d3d3d3"
           stroke-dasharray="3,2"
           id="line94" />
        <line
           x1="56.14"
           y1="393.1"
           x2="760.52"
           y2="393.1"
           stroke="#d3d3d3"
           stroke-dasharray="3,2"
           id="line96" />
        <line
           x1="56.14"
           y1="331.1"
           x2="760.52"
           y2="331.1"
           stroke="#ccc"
           id="line98" />
        <line
           x1="56.14"
           y1="269.1"
           x2="760.52"
           y2="269.1"
           stroke="#d3d3d3"
           stroke-dasharray="3,2"
           id="line100" />
        <line
           x1="56.14"
           y1="207.1"
           x2="760.52"
           y2="207.1"
           stroke="#d3d3d3"
           stroke-dasharray="3,2"
           id="line102" />
        <line
           x1="56.14"
           y1="145.1"
           x2="760.52"
           y2="145.1"
           stroke="#d3d3d3"
           stroke-dasharray="3,2"
           id="line104" />
        <line
           x1="56.14"
           y1="83.1"
           x2="760.52"
           y2="83.1"
           stroke="#d3d3d3"
           stroke-dasharray="3,2"
           id="line106" />
      </g>
    </g>
    <g
       clip-path="url(#boundsClip-4)"
       id="g178">
      <g
         class="LineLabels"
         style="cursor:default"
         id="g148">
        <g
           class="legendMark"
           id="g122">
          <g
             class="indicator"
             id="g114">
            <path
               d="M764.52,90.5 H773.52 V88.5 H791.52"
               stroke="#999"
               stroke-width="0.5"
               fill="none"
               id="path112" />
          </g>
          <rect
             x="760.52"
             y="82.5"
             width="67.75999999999999"
             height="12"
             fill="#fff"
             opacity="0"
             id="rect116" />
          <text
             font-size="12px"
             x="795.5"
             y="92.099998"
             fill="#c8c8c8"
             id="text120"><tspan
               x="795.52002"
               y="92.099998"
               id="tspan118">Alto</tspan></text>
        </g>
        <g
           class="legendMark"
           id="g134">
          <g
             class="indicator"
             id="g126">
            <path
               d="M764.52,102.9 H782.52 V102.5 H791.52"
               stroke="#999"
               stroke-width="0.5"
               fill="none"
               id="path124" />
          </g>
          <rect
             x="760.52"
             y="96.5"
             width="74.47999999999999"
             height="12"
             fill="#fff"
             opacity="0"
             id="rect128" />
          <text
             font-size="12px"
             x="795.5"
             y="106.1"
             fill="#ca2628"
             id="text132"><tspan
               x="795.52002"
               y="106.1"
               id="tspan130">Mediana</tspan></text>
        </g>
        <g
           class="legendMark"
           id="g146">
          <g
             class="indicator"
             id="g138">
            <path
               d="M764.52,114.1 H782.52 V116.5 H791.52"
               stroke="#999"
               stroke-width="0.5"
               fill="none"
               id="path136" />
          </g>
          <rect
             x="760.52"
             y="110.5"
             width="67.75999999999999"
             height="12"
             fill="#fff"
             opacity="0"
             id="rect140" />
          <text
             font-size="12px"
             x="795.5"
             y="120.1"
             fill="#c8c8c8"
             id="text144"><tspan
               x="795.52002"
               y="120.1"
               id="tspan142">Bajo</tspan></text>
        </g>
      </g>
      <g
         class="Lines"
         id="g176">
        <rect
           x="56"
           y="72"
           width="704"
           height="444"
           fill="rgba(255,255,255,0)"
           opacity="0"
           id="rect150" />
        <g
           id="g154">
          <path
             stroke-linecap="round"
             stroke="#ddd"
             d="M56 463L60 416L65 418L69 431L73 424L77 432L81 459L85 490L90 493L94 437L98 457L102 481L106 516L110 442L115 506L119 442L123 436L127 457L131 432L135 434L140 437L144 456L148 421L152 444L156 466L160 475L165 472L169 376L173 339L177 421L181 420L185 411L190 416L194 440L198 473L202 469L206 461L210 479L215 442L219 404L223 481L227 458L231 494L235 501L240 482L244 474L248 410L252 416L256 480L260 441L265 415L269 432L273 474L277 500L281 511L285 467L290 436L294 493L298 506L302 510L306 501L310 516L315 482L319 477L323 421L327 394L331 467L335 494L340 454L344 433L348 423L352 405L356 438L360 431L365 437L369 413L373 379L377 410L381 410L385 453L390 387L394 372L398 388L402 430L406 386L410 400L415 389L419 351L423 345L427 358L431 337L435 338L440 356L444 349L448 302L452 336L456 366L460 362L465 362L469 368L473 398L477 359L481 334L485 313L490 383L494 400L498 423L502 342L506 325L510 334L515 354L519 328L523 335L527 324L531 407L536 382L540 359L544 360L548 372L552 327L556 346L561 394L565 356L569 315L573 402L577 382L581 410L586 321L590 355L594 318L598 307L602 292L606 335L611 277L615 341L619 346L623 324L627 278L631 277L636 303L640 248L644 263L648 309L652 296L656 277L661 242L665 286L669 221L673 176L677 249L681 251L686 205L690 188L694 184L698 203L702 174L706 186L711 189L715 221L719 187L723 169L727 209L731 196L736 183L740 162L744 105L748 95L752 134L756 158L761 114"
             fill="none"
             stroke-width="1"
             id="path152" />
        </g>
        <g
           id="g158">
          <path
             stroke-linecap="round"
             stroke="#ddd"
             d="M56 436L60 388L65 392L69 405L73 399L77 406L81 433L85 465L90 466L94 408L98 427L102 442L106 477L110 401L115 470L119 403L123 392L127 413L131 389L135 400L140 405L144 422L148 389L152 411L156 432L160 440L165 435L169 339L173 305L177 390L181 388L185 380L190 384L194 409L198 447L202 441L206 435L210 450L215 414L219 371L223 446L227 417L231 455L235 460L240 440L244 435L248 373L252 379L256 443L260 403L265 377L269 396L273 441L277 465L281 477L285 432L290 403L294 462L298 476L302 479L306 470L310 486L315 453L319 449L323 392L327 358L331 433L335 459L340 415L344 398L348 393L352 377L356 412L360 405L365 411L369 386L373 353L377 386L381 385L385 430L390 363L394 348L398 364L402 406L406 362L410 378L415 368L419 331L423 326L427 340L431 317L435 315L440 326L444 320L448 275L452 313L456 344L460 331L465 331L469 342L473 373L477 337L481 312L485 290L490 360L494 381L498 404L502 324L506 308L510 318L515 338L519 313L523 321L527 308L531 392L536 366L540 344L544 347L548 361L552 316L556 334L561 382L565 344L569 306L573 392L577 373L581 402L586 311L590 345L594 308L598 298L602 284L606 322L611 266L615 329L619 335L623 310L627 263L631 263L636 286L640 229L644 242L648 288L652 273L656 255L661 219L665 264L669 199L673 152L677 225L681 226L686 181L690 164L694 162L698 181L702 150L706 162L711 167L715 197L719 162L723 144L727 187L731 173L736 160L740 140L744 82L748 72L752 109L756 134L761 91"
             fill="none"
             stroke-width="1"
             id="path156" />
        </g>
        <g
           id="g162">
          <path
             stroke-linecap="round"
             stroke="#ddd"
             d="M56 447L60 399L65 402L69 415L73 408L77 415L81 442L85 474L90 476L94 419L98 437L102 457L106 494L110 417L115 484L119 418L123 409L127 431L131 405L135 412L140 417L144 435L148 402L152 425L156 445L160 454L165 450L169 354L173 320L177 402L181 402L185 393L190 397L194 423L198 458L202 452L206 445L210 461L215 426L219 384L223 460L227 433L231 472L235 478L240 458L244 452L248 389L252 395L256 459L260 421L265 394L269 411L273 456L277 480L281 492L285 448L290 419L294 475L298 490L302 493L306 483L310 500L315 467L319 463L323 407L327 375L331 450L335 476L340 434L344 416L348 408L352 389L356 425L360 417L365 422L369 398L373 365L377 396L381 395L385 440L390 374L394 358L398 374L402 416L406 372L410 386L415 377L419 339L423 333L427 347L431 327L435 325L440 340L444 332L448 286L452 323L456 353L460 343L465 343L469 354L473 385L477 347L481 322L485 301L490 371L494 390L498 414L502 333L506 317L510 326L515 346L519 319L523 327L527 316L531 400L536 375L540 352L544 354L548 366L552 321L556 340L561 389L565 351L569 312L573 397L577 377L581 406L586 317L590 350L594 313L598 303L602 288L606 328L611 271L615 335L619 340L623 317L627 272L631 270L636 295L640 239L644 252L648 299L652 285L656 267L661 230L665 274L669 210L673 164L677 236L681 240L686 194L690 177L694 175L698 193L702 162L706 174L711 179L715 209L719 174L723 158L727 199L731 185L736 172L740 152L744 95L748 84L752 121L756 146L761 103"
             fill="none"
             stroke-width="1"
             id="path160" />
        </g>
        <g
           id="g166">
          <path
             stroke="#c8c8c8"
             stroke-linecap="round"
             d="M56 463L60 416L65 418L69 431L73 424L77 432L81 459L85 490L90 493L94 437L98 457L102 481L106 516L110 442L115 506L119 442L123 436L127 457L131 432L135 434L140 437L144 456L148 421L152 444L156 466L160 475L165 472L169 376L173 339L177 421L181 420L185 411L190 416L194 440L198 473L202 469L206 461L210 479L215 442L219 404L223 481L227 458L231 494L235 501L240 482L244 474L248 410L252 416L256 480L260 441L265 415L269 432L273 474L277 500L281 511L285 467L290 436L294 493L298 506L302 510L306 501L310 516L315 482L319 477L323 421L327 394L331 467L335 494L340 454L344 433L348 423L352 405L356 438L360 431L365 437L369 413L373 379L377 410L381 410L385 453L390 387L394 372L398 388L402 430L406 386L410 400L415 389L419 351L423 345L427 358L431 337L435 338L440 356L444 349L448 302L452 336L456 366L460 362L465 362L469 368L473 398L477 359L481 334L485 313L490 383L494 400L498 423L502 342L506 325L510 334L515 354L519 328L523 335L527 324L531 407L536 382L540 359L544 360L548 372L552 327L556 346L561 394L565 356L569 315L573 402L577 382L581 410L586 321L590 355L594 318L598 307L602 292L606 335L611 277L615 341L619 346L623 324L627 278L631 277L636 303L640 248L644 263L648 309L652 296L656 277L661 242L665 286L669 221L673 176L677 249L681 251L686 205L690 188L694 184L698 203L702 174L706 186L711 189L715 221L719 187L723 169L727 209L731 196L736 183L740 162L744 105L748 95L752 134L756 158L761 114"
             fill="none"
             stroke-width="1.5"
             id="path164" />
        </g>
        <g
           id="g170">
          <path
             stroke="#c8c8c8"
             stroke-linecap="round"
             d="M56 436L60 388L65 392L69 405L73 399L77 406L81 433L85 465L90 466L94 408L98 427L102 442L106 477L110 401L115 470L119 403L123 392L127 413L131 389L135 400L140 405L144 422L148 389L152 411L156 432L160 440L165 435L169 339L173 305L177 390L181 388L185 380L190 384L194 409L198 447L202 441L206 435L210 450L215 414L219 371L223 446L227 417L231 455L235 460L240 440L244 435L248 373L252 379L256 443L260 403L265 377L269 396L273 441L277 465L281 477L285 432L290 403L294 462L298 476L302 479L306 470L310 486L315 453L319 449L323 392L327 358L331 433L335 459L340 415L344 398L348 393L352 377L356 412L360 405L365 411L369 386L373 353L377 386L381 385L385 430L390 363L394 348L398 364L402 406L406 362L410 378L415 368L419 331L423 326L427 340L431 317L435 315L440 326L444 320L448 275L452 313L456 344L460 331L465 331L469 342L473 373L477 337L481 312L485 290L490 360L494 381L498 404L502 324L506 308L510 318L515 338L519 313L523 321L527 308L531 392L536 366L540 344L544 347L548 361L552 316L556 334L561 382L565 344L569 306L573 392L577 373L581 402L586 311L590 345L594 308L598 298L602 284L606 322L611 266L615 329L619 335L623 310L627 263L631 263L636 286L640 229L644 242L648 288L652 273L656 255L661 219L665 264L669 199L673 152L677 225L681 226L686 181L690 164L694 162L698 181L702 150L706 162L711 167L715 197L719 162L723 144L727 187L731 173L736 160L740 140L744 82L748 72L752 109L756 134L761 91"
             fill="none"
             stroke-width="1.5"
             id="path168" />
        </g>
        <g
           id="g174">
          <path
             stroke="#ca2628"
             stroke-linecap="round"
             d="M56 447L60 399L65 402L69 415L73 408L77 415L81 442L85 474L90 476L94 419L98 437L102 457L106 494L110 417L115 484L119 418L123 409L127 431L131 405L135 412L140 417L144 435L148 402L152 425L156 445L160 454L165 450L169 354L173 320L177 402L181 402L185 393L190 397L194 423L198 458L202 452L206 445L210 461L215 426L219 384L223 460L227 433L231 472L235 478L240 458L244 452L248 389L252 395L256 459L260 421L265 394L269 411L273 456L277 480L281 492L285 448L290 419L294 475L298 490L302 493L306 483L310 500L315 467L319 463L323 407L327 375L331 450L335 476L340 434L344 416L348 408L352 389L356 425L360 417L365 422L369 398L373 365L377 396L381 395L385 440L390 374L394 358L398 374L402 416L406 372L410 386L415 377L419 339L423 333L427 347L431 327L435 325L440 340L444 332L448 286L452 323L456 353L460 343L465 343L469 354L473 385L477 347L481 322L485 301L490 371L494 390L498 414L502 333L506 317L510 326L515 346L519 319L523 327L527 316L531 400L536 375L540 352L544 354L548 366L552 321L556 340L561 389L565 351L569 312L573 397L577 377L581 406L586 317L590 350L594 313L598 303L602 288L606 328L611 271L615 335L619 340L623 317L627 272L631 270L636 295L640 239L644 252L648 299L652 285L656 267L661 230L665 274L669 210L673 164L677 236L681 240L686 194L690 177L694 175L698 193L702 162L706 174L711 179L715 209L719 174L723 158L727 199L731 185L736 172L740 152L744 95L748 84L752 121L756 146L761 103"
             fill="none"
             stroke-width="1.5"
             id="path172" />
        </g>
      </g>
    </g>
  </g>
  <g
     class="SourcesFooter"
     style="fill:#777"
     id="g200">
    <g
       style="fill:#777"
       id="g186">
      <text
         font-size="11.2px"
         x="15"
         y="569.59998"
         id="text184"><tspan
           x="15"
           y="569.56"
           id="tspan182">Fuente: Hadley Centre (HadCRUT4)</tspan></text>
    </g>
    <text
       font-size="11.2px"
       x="15"
       y="582.79999"
       id="text190"><tspan
         x="15"
         y="582.76001"
         id="tspan188">Nota: La línea roja representa el cambio mediano en temperatura, y las lineas grises representan el intervalo de confianza al 95%</tspan></text>
    <text
       font-size="11.20"
       x="476.7"
       y="569.6"
       id="text198"><tspan
         x="476.71200000000005"
         y="569.5600000000001"
         id="tspan196"><a
   target="_blank"
   style="fill: #777;"
   href="https://ourworldindata.org/co2-and-other-greenhouse-gas-emissions"
   id="a192">OurWorldInData.org/co2-and-other-greenhouse-gas-emissions</a> • <a
   style="fill: #777;"
   class="cclogo"
   href="http://creativecommons.org/licenses/by/4.0/deed.en_US"
   target="_blank"
   id="a194">CC BY</a></tspan></text>
  </g>
</svg>
